<svg width="20" height="20" viewBox="0 0 20 20" fill="none" xmlns="http://www.w3.org/2000/svg">
<path d="M9.9999 0.400002C7.45382 0.400002 5.01203 1.41143 3.21168 3.21178C1.41133 5.01213 0.399902 7.45392 0.399902 10C0.399968 11.2607 0.648344 12.509 1.13085 13.6737C1.61336 14.8384 2.32054 15.8967 3.21203 16.7881C4.10352 17.6795 5.16185 18.3866 6.3266 18.8689C7.49135 19.3513 8.73971 19.5996 10.0004 19.5995C11.2611 19.5994 12.5094 19.3511 13.6741 18.8686C14.8388 18.386 15.8971 17.6789 16.7885 16.7874C17.6799 15.8959 18.387 14.8376 18.8693 13.6728C19.3517 12.5081 19.6 11.2597 19.5999 9.999C19.5999 4.698 15.3009 0.400002 9.9999 0.400002ZM9.9999 17.599C9.00186 17.599 8.01358 17.4024 7.09151 17.0205C6.16943 16.6386 5.33162 16.0787 4.62589 15.373C3.92017 14.6673 3.36035 13.8295 2.97842 12.9074C2.59648 11.9853 2.3999 10.997 2.3999 9.999C2.3999 9.00096 2.59648 8.01268 2.97842 7.09061C3.36035 6.16853 3.92017 5.33072 4.62589 4.62499C5.33162 3.91926 6.16943 3.35945 7.09151 2.97752C8.01358 2.59558 9.00186 2.399 9.9999 2.399V10L16.7919 6.604C17.3229 7.65731 17.5996 8.82042 17.5999 10C17.5996 12.0155 16.7988 13.9483 15.3736 15.3734C13.9483 16.7984 12.0154 17.599 9.9999 17.599Z" fill="url(#paint0_linear_18_13)"/>
<defs>
<linearGradient id="paint0_linear_18_13" x1="9.9999" y1="0.400002" x2="9.9999" y2="19.5995" gradientUnits="userSpaceOnUse">
<stop stop-color="#8B53FF"/>
<stop offset="1" stop-color="#CB6CE4"/>
</linearGradient>
</defs>
</svg>
