<svg data-v-7a251e40="" width="28" height="28" viewBox="0 0 128 128" fill="none" xmlns="http://www.w3.org/2000/svg"><path data-v-7a251e40="" d="M128 112C128 120.8 120.8 128 112 128H16C7.2 128 0 120.8 0 112V16C0 7.2 7.2 0 16 0H112C120.8 0 128 7.2 128 16V112Z" fill="url(#paint0_linear_502_2)"></path><path data-v-7a251e40="" d="M86 112H42C27.664 112 16 100.337 16 86V42C16 27.664 27.664 16 42 16H86C100.337 16 112 27.664 112 42V86C112 100.337 100.337 112 86 112ZM42 24C32.075 24 24 32.075 24 42V86C24 95.925 32.075 104 42 104H86C95.925 104 104 95.925 104 86V42C104 32.075 95.925 24 86 24H42Z" fill="white"></path><path data-v-7a251e40="" d="M64 88C50.766 88 40 77.233 40 64C40 50.766 50.766 40 64 40C77.233 40 88 50.766 88 64C88 77.233 77.233 88 64 88ZM64 48C55.178 48 48 55.178 48 64C48 72.822 55.178 80 64 80C72.822 80 80 72.822 80 64C80 55.178 72.822 48 64 48Z" fill="white"></path><path data-v-7a251e40="" d="M89.5 44C92.5376 44 95 41.5376 95 38.5C95 35.4624 92.5376 33 89.5 33C86.4624 33 84 35.4624 84 38.5C84 41.5376 86.4624 44 89.5 44Z" fill="white"></path><defs data-v-7a251e40=""><linearGradient data-v-7a251e40="" id="paint0_linear_502_2" x1="16.4878" y1="131.855" x2="111.512" y2="-3.8544" gradientUnits="userSpaceOnUse"><stop data-v-7a251e40="" stop-color="#FFB900"></stop><stop data-v-7a251e40="" offset="1" stop-color="#9100EB"></stop></linearGradient></defs></svg>