<svg width="216" height="212" viewBox="0 0 216 212" fill="none" xmlns="http://www.w3.org/2000/svg">
<path d="M4.80005 101.595C6.8772 103.153 9.40361 103.995 12 103.995C13.8603 103.979 15.6924 103.539 17.3563 102.707C19.0201 101.875 20.4717 100.674 21.6 99.1947C26.0711 93.2333 31.8687 88.3947 38.5338 85.0622C45.1989 81.7297 52.5483 79.9947 60 79.9947C67.4518 79.9947 74.8012 81.7297 81.4663 85.0622C88.1314 88.3947 93.929 93.2333 98.4001 99.1947H98.5001L99.2001 99.9947C99.2001 100.095 99.3001 100.095 99.4001 100.195L100 100.795L100.4 101.195L100.8 101.495C100.827 101.495 100.852 101.505 100.871 101.524C100.89 101.543 100.9 101.568 100.9 101.595L101.2 101.795L101.8 102.195L102.1 102.395L102.9 102.695C102.9 102.795 103 102.795 103.1 102.795L104 103.195H104.1C104.801 103.5 105.542 103.702 106.3 103.795H109.5L110.4 103.595H110.8C111.631 103.384 112.435 103.082 113.2 102.695L113.6 102.495L114.3 102.095L114.8 101.795L115.2 101.495L115.4 101.295L115.8 100.995L116.5 100.395L116.8 100.095L117.5 99.1947H117.6C122.071 93.2333 127.869 88.3947 134.534 85.0622C141.199 81.7297 148.548 79.9947 156 79.9947C163.452 79.9947 170.801 81.7297 177.466 85.0622C184.131 88.3947 189.929 93.2333 194.4 99.1947C196.31 101.741 199.152 103.424 202.303 103.874C205.454 104.324 208.654 103.504 211.2 101.595C213.746 99.6851 215.429 96.8424 215.879 93.6918C216.33 90.5412 215.51 87.3408 213.6 84.7947C206.912 75.8742 198.253 68.619 188.3 63.5947C192.657 57.6308 195.277 50.5772 195.871 43.2154C196.464 35.8537 195.008 28.4713 191.664 21.8863C188.319 15.3013 183.217 9.77091 176.922 5.90786C170.627 2.04482 163.386 0 156 0C148.614 0 141.373 2.04482 135.078 5.90786C128.783 9.77091 123.681 15.3013 120.336 21.8863C116.992 28.4713 115.536 35.8537 116.129 43.2154C116.723 50.5772 119.343 57.6308 123.7 63.5947C118.014 66.4471 112.734 70.0455 108 74.2947C103.266 70.0455 97.9861 66.4471 92.3001 63.5947C96.6566 57.6308 99.2769 50.5772 99.8706 43.2154C100.464 35.8537 99.0082 28.4713 95.6637 21.8863C92.3191 15.3013 87.2168 9.77091 80.922 5.90786C74.6271 2.04482 67.3857 0 60 0C52.6144 0 45.373 2.04482 39.0781 5.90786C32.7833 9.77091 27.681 15.3013 24.3364 21.8863C20.9919 28.4713 19.5358 35.8537 20.1295 43.2154C20.7232 50.5772 23.3435 57.6308 27.7001 63.5947C17.7468 68.619 9.0885 75.8742 2.40005 84.7947C0.49049 87.3408 -0.329432 90.5412 0.120655 93.6918C0.570742 96.8424 2.25397 99.6851 4.80005 101.595V101.595ZM140 39.9947C140 36.8302 140.938 33.7368 142.697 31.1056C144.455 28.4744 146.953 26.4236 149.877 25.2126C152.801 24.0016 156.018 23.6848 159.121 24.3021C162.225 24.9195 165.076 26.4434 167.314 28.681C169.551 30.9186 171.075 33.7696 171.693 36.8733C172.31 39.977 171.993 43.194 170.782 46.1176C169.571 49.0413 167.52 51.5401 164.889 53.2982C162.258 55.0563 159.165 55.9947 156 55.9947C151.757 55.9947 147.687 54.309 144.686 51.3084C141.686 48.3078 140 44.2382 140 39.9947ZM44 39.9947C44 36.8302 44.9384 33.7368 46.6965 31.1056C48.4546 28.4744 50.9535 26.4236 53.8771 25.2126C56.8007 24.0016 60.0178 23.6848 63.1215 24.3021C66.2252 24.9195 69.0761 26.4434 71.3138 28.681C73.5514 30.9186 75.0753 33.7696 75.6926 36.8733C76.31 39.977 75.9931 43.194 74.7821 46.1176C73.5711 49.0413 71.5204 51.5401 68.8892 53.2982C66.258 55.0563 63.1646 55.9947 60 55.9947C55.7566 55.9947 51.6869 54.309 48.6863 51.3084C45.6858 48.3078 44 44.2382 44 39.9947ZM188.3 171.595C192.657 165.631 195.277 158.577 195.871 151.215C196.464 143.854 195.008 136.471 191.664 129.886C188.319 123.301 183.217 117.771 176.922 113.908C170.627 110.045 163.386 108 156 108C148.614 108 141.373 110.045 135.078 113.908C128.783 117.771 123.681 123.301 120.336 129.886C116.992 136.471 115.536 143.854 116.129 151.215C116.723 158.577 119.343 165.631 123.7 171.595C118.014 174.447 112.734 178.046 108 182.295C103.266 178.046 97.9861 174.447 92.3001 171.595C96.6566 165.631 99.2769 158.577 99.8706 151.215C100.464 143.854 99.0082 136.471 95.6637 129.886C92.3191 123.301 87.2168 117.771 80.922 113.908C74.6271 110.045 67.3857 108 60 108C52.6144 108 45.373 110.045 39.0781 113.908C32.7833 117.771 27.681 123.301 24.3364 129.886C20.9919 136.471 19.5358 143.854 20.1295 151.215C20.7232 158.577 23.3435 165.631 27.7001 171.595C17.7468 176.619 9.0885 183.874 2.40005 192.795C1.06292 194.578 0.248674 196.697 0.0485382 198.917C-0.151597 201.137 0.270289 203.368 1.26692 205.361C2.26356 207.355 3.79556 209.031 5.69128 210.203C7.58699 211.374 9.77151 211.995 12 211.995C13.8603 211.979 15.6924 211.539 17.3563 210.707C19.0201 209.875 20.4717 208.674 21.6 207.195C26.0711 201.233 31.8687 196.395 38.5338 193.062C45.1989 189.73 52.5483 187.995 60 187.995C67.4518 187.995 74.8012 189.73 81.4663 193.062C88.1314 196.395 93.929 201.233 98.4001 207.195H98.5001L99.2001 207.995C99.2001 208.048 99.2211 208.099 99.2586 208.136C99.2961 208.174 99.347 208.195 99.4001 208.195L100 208.795L100.4 209.195L100.8 209.495H100.9L101.2 209.695L101.8 210.095L102.1 210.295L102.9 210.595L103.1 210.795L104 211.095H104.1C104.801 211.4 105.542 211.602 106.3 211.695H109.5L110.4 211.495H110.8L113.2 210.595L113.6 210.395L114.3 209.995L114.8 209.695L115.2 209.395L115.4 209.195L115.8 208.895L116.5 208.295L116.8 207.995L117.5 207.095H117.6C122.071 201.133 127.869 196.295 134.534 192.962C141.199 189.63 148.548 187.895 156 187.895C163.452 187.895 170.801 189.63 177.466 192.962C184.131 196.295 189.929 201.133 194.4 207.095C196.31 209.641 199.152 211.324 202.303 211.774C205.454 212.224 208.654 211.404 211.2 209.495C213.746 207.585 215.429 204.742 215.879 201.592C216.33 198.441 215.51 195.241 213.6 192.695C206.9 183.811 198.243 176.59 188.3 171.595V171.595ZM44 147.995C44 144.83 44.9384 141.737 46.6965 139.106C48.4546 136.474 50.9535 134.424 53.8771 133.213C56.8007 132.002 60.0178 131.685 63.1215 132.302C66.2252 132.92 69.0761 134.443 71.3138 136.681C73.5514 138.919 75.0753 141.77 75.6926 144.873C76.31 147.977 75.9931 151.194 74.7821 154.118C73.5711 157.041 71.5204 159.54 68.8892 161.298C66.258 163.056 63.1646 163.995 60 163.995C55.7566 163.995 51.6869 162.309 48.6863 159.308C45.6858 156.308 44 152.238 44 147.995ZM140 147.995C140 144.83 140.938 141.737 142.697 139.106C144.455 136.474 146.953 134.424 149.877 133.213C152.801 132.002 156.018 131.685 159.121 132.302C162.225 132.92 165.076 134.443 167.314 136.681C169.551 138.919 171.075 141.77 171.693 144.873C172.31 147.977 171.993 151.194 170.782 154.118C169.571 157.041 167.52 159.54 164.889 161.298C162.258 163.056 159.165 163.995 156 163.995C151.757 163.995 147.687 162.309 144.686 159.308C141.686 156.308 140 152.238 140 147.995Z" fill="url(#paint0_linear_6_5)"/>
<defs>
<linearGradient id="paint0_linear_6_5" x1="256" y1="284.495" x2="-7.99994" y2="43.9947" gradientUnits="userSpaceOnUse">
<stop stop-color="#8B53FF"/>
<stop offset="0.834729" stop-color="#CB6CE4"/>
</linearGradient>
</defs>
</svg>
