<svg width="185" height="79" viewBox="0 0 185 79" fill="none" xmlns="http://www.w3.org/2000/svg">
<path d="M27.3337 0.733329C27.3337 0.999996 21.3337 18.4667 14.0003 39.6667C6.66699 60.8667 0.666992 78.3333 0.666992 78.6C0.666992 78.8667 4.26699 79 8.53366 79H16.4003L18.9337 70.6L21.467 62.3333L35.6003 61.9333L49.7337 61.5333L52.667 70.3333L55.6003 79H63.3337H71.2003L58.0003 40.2C50.667 18.8667 44.667 1.13333 44.667 0.866663C44.667 0.599996 40.8003 0.333329 36.0003 0.333329C31.2003 0.333329 27.3337 0.466663 27.3337 0.733329ZM40.667 32.6C43.067 39.9333 45.2003 46.8667 45.6003 47.9333C46.1337 49.2667 44.1337 49.6667 36.1337 49.6667C30.5337 49.6667 26.0003 49.4 26.0003 49C26.0003 48.4667 32.1337 28.4667 34.667 20.6C35.7337 17.4 36.5337 19.1333 40.667 32.6Z" fill="white"/>
<path d="M84.667 39.6667V79H92.667H100.667L100.934 51.9333L101.334 25L117.334 51.9333L133.334 79H141.6H150V39.6667V0.333329H142H134L133.734 27.2667L133.334 54.3333L117.334 27.4L101.334 0.333329H93.067H84.667V39.6667Z" fill="white"/>
<path d="M168.667 39.6667V79H176.667H184.667V39.6667V0.333329H176.667H168.667V39.6667Z" fill="white"/>
</svg>
