<svg width="1346" height="160" viewBox="0 0 1346 160" fill="none" xmlns="http://www.w3.org/2000/svg">
<path d="M0 156.352V149.219C3.387 148.79 5.72901 147.821 7.06201 146.281C8.39501 144.739 9.07999 142.158 9.07999 138.503V20.0728C9.07999 16.3438 8.39501 13.6928 7.06201 12.0788C5.72901 10.4668 3.387 9.46283 0 9.03183V2.00781H43.274C58.335 2.00781 70.081 5.12483 78.549 11.3978C86.98 17.6718 91.232 26.3448 91.232 37.3848C91.232 47.2428 87.917 55.4868 81.324 62.1168C74.694 68.7488 65.29 73.2658 53.039 75.7028C66.84 77.9608 77.36 82.4418 84.639 89.1448C91.916 95.8468 95.557 104.45 95.557 114.881C95.557 128.323 91.232 138.61 82.585 145.706C73.938 152.804 61.398 156.352 45.004 156.352H0ZM36.103 72.4418H38.734C46.986 72.4418 52.93 69.9678 56.569 65.0218C60.245 60.0738 62.047 51.9388 62.047 40.6108C62.047 28.3528 60.642 20.0358 57.867 15.6288C55.092 11.2188 50.157 8.99683 43.022 8.99683C40.212 8.99683 38.337 9.49983 37.437 10.5018C36.536 11.5058 36.068 13.5858 36.068 16.7398V72.4418H36.103ZM36.103 79.1808V137.893C36.103 142.158 36.752 145.133 38.013 146.782C39.274 148.432 41.473 149.256 44.571 149.256C51.597 149.256 56.822 146.71 60.245 141.585C63.669 136.46 65.362 128.574 65.362 117.856C65.362 104.128 63.092 94.2698 58.516 88.2848C53.903 82.2628 46.444 79.2508 36.103 79.1808Z" fill="white"/>
<path d="M159.621 72.0482C159.621 68.2112 159.079 65.5232 158.035 64.0182C156.99 62.5132 155.045 61.4722 152.235 60.9362V54.1972C158.935 54.1972 164.7 54.1252 169.529 53.9452C174.394 53.7662 178.861 53.5162 182.932 53.1582V138.717C182.932 142.696 183.509 145.457 184.663 146.927C185.814 148.396 187.978 149.328 191.148 149.757V156.783C182.645 157.142 176.232 157.428 171.979 157.68C167.727 157.929 163.8 158.181 160.196 158.467L159.765 143.234C155.62 148.753 151.514 152.769 147.514 155.241C143.513 157.715 139.154 158.97 134.433 158.97C126.687 158.97 121.21 156.424 117.967 151.371C114.724 146.281 113.103 137.499 113.103 124.954V72.0482C113.103 68.0692 112.6 65.3442 111.59 63.9112C110.581 62.4762 108.671 61.4722 105.933 60.9362V54.1972C112.635 54.1972 118.4 54.1252 123.229 53.9452C128.092 53.7662 132.561 53.5162 136.632 53.1582V127.391C136.632 133.413 137.353 137.714 138.793 140.259C140.235 142.804 142.613 144.094 145.928 144.094C150.216 144.094 153.568 142.051 155.945 137.965C158.323 133.879 159.549 128.108 159.549 120.687V72.0482H159.621Z" fill="white"/>
<path d="M202.462 115.527H209.957C211.937 126.709 215.361 135.564 220.261 141.979C225.162 148.432 230.783 151.658 237.197 151.658C240.871 151.658 243.862 150.475 246.205 148.146C248.545 145.816 249.734 142.804 249.734 139.184C249.734 136.244 248.799 133.341 246.889 130.474C244.979 127.606 242.241 124.99 238.637 122.588C237.665 121.943 236.26 121.046 234.422 119.865C219.505 110.078 210.353 102.407 206.966 96.8514C205.416 94.4154 204.262 91.7264 203.543 88.8594C202.785 85.9914 202.427 82.9814 202.427 79.8254C202.427 71.8324 204.839 65.1654 209.669 59.7534C214.496 54.3774 220.405 51.6514 227.468 51.6514C230.639 51.6514 234.242 52.4764 238.349 54.1254C242.42 55.7744 244.944 56.5994 245.844 56.5994C247.033 56.5994 248.15 56.1684 249.159 55.3444C250.167 54.5194 251.032 53.3384 251.753 51.8684H258.419V89.6833H251.249C248.51 79.6103 245.088 71.9044 241.015 66.6354C236.944 61.3654 232.368 58.7144 227.287 58.7144C224.26 58.7144 221.666 59.7884 219.54 61.9764C217.379 64.1614 216.334 66.8144 216.334 69.9684C216.334 75.6324 222.387 82.2274 234.494 89.7184L234.927 89.9354C246.133 96.9244 253.843 103.267 258.095 108.932C262.346 114.595 264.472 121.046 264.472 128.251C264.472 136.71 261.699 143.952 256.148 149.974C250.6 155.996 243.862 159.006 235.971 159.006C232.044 159.006 227.936 158.074 223.685 156.173C219.433 154.275 216.911 153.343 216.155 153.343C215.324 153.343 214.389 153.701 213.342 154.382C212.335 155.099 210.713 156.604 208.552 159.006H202.534V115.527H202.462Z" fill="white"/>
<path d="M305.694 138.718C305.694 142.482 306.306 145.17 307.495 146.747C308.684 148.324 310.845 149.399 313.944 149.937V156.352H274.13V149.937C277.301 149.363 279.462 148.324 280.616 146.747C281.767 145.17 282.344 142.482 282.344 138.718V72.4419C282.344 68.3909 281.732 65.5949 280.543 64.0899C279.355 62.5829 277.228 61.6519 274.202 61.2929V54.1619C278.057 54.0169 282.309 53.8379 286.885 53.5869C291.461 53.3369 297.731 52.9779 305.657 52.4749V138.718H305.694ZM305.08 14.3729C305.08 17.8859 303.747 20.9329 301.118 23.5489C298.487 26.1659 295.388 27.4929 291.894 27.4929C288.362 27.4929 285.299 26.2029 282.67 23.6219C280.039 21.0399 278.706 17.9579 278.706 14.3729C278.706 10.8599 280.039 7.81287 282.67 5.19687C285.299 2.58087 288.398 1.25488 291.894 1.25488C295.496 1.25488 298.594 2.58087 301.19 5.19687C303.784 7.81287 305.08 10.8969 305.08 14.3729Z" fill="white"/>
<path d="M356.065 138.718C356.065 142.482 356.677 145.17 357.866 146.747C359.056 148.325 361.218 149.399 364.316 149.937V156.353H324.5V149.937C327.599 149.364 329.725 148.325 330.842 146.783C331.959 145.241 332.536 142.552 332.536 138.683V72.4419C332.536 68.3189 331.959 65.5229 330.807 64.0539C329.653 62.5839 327.599 61.6889 324.644 61.3299V54.1969C332.896 53.8379 339.131 53.5519 343.418 53.2999C347.706 53.0509 351.67 52.7989 355.236 52.5129L355.669 67.7458C359.812 62.3688 363.919 58.4269 367.92 55.9889C371.919 53.5519 376.279 52.2959 380.999 52.2959C388.746 52.2959 394.222 54.8049 397.465 59.8599C400.708 64.9149 402.33 73.6959 402.33 86.2049V138.718C402.33 142.552 402.87 145.241 403.914 146.747C404.961 148.253 406.834 149.329 409.5 149.937V156.353H378.765V83.6959C378.765 77.5319 378.08 73.2299 376.711 70.7929C375.341 68.3559 373.001 67.1009 369.686 67.1009C365.398 67.1009 362.046 69.1079 359.668 73.1219C357.291 77.1359 356.065 82.8719 356.065 90.2909V138.718Z" fill="white"/>
<path d="M483.583 121.729H490.536C489.708 133.414 486.284 142.553 480.34 149.15C474.394 155.745 466.612 159.005 456.955 159.005C445.749 159.005 436.597 154.168 429.462 144.526C422.329 134.847 418.76 122.337 418.76 106.924C418.76 90.4705 422.257 77.1365 429.21 66.9585C436.164 56.7785 445.137 51.6875 456.127 51.6875C466.9 51.6875 475.331 56.5265 481.42 66.2405C487.51 75.9545 490.536 89.5035 490.536 106.924V107.749H444.92V111.62C444.92 123.591 446.398 132.624 449.352 138.753C452.307 144.884 456.739 147.929 462.648 147.929C468.124 147.929 472.7 145.672 476.376 141.12C480.051 136.603 482.466 130.115 483.583 121.729ZM444.739 99.1455H466.395V92.5135C466.395 79.8965 465.602 71.0795 464.09 66.0615C462.54 61.0065 459.909 58.4975 456.162 58.4975C452.379 58.4975 449.496 61.6885 447.623 68.0695C445.714 74.4475 444.776 84.0915 444.776 97.0675V99.1455H444.739Z" fill="white"/>
<path d="M501.633 115.527H509.128C511.11 126.709 514.532 135.564 519.432 141.979C524.333 148.432 529.954 151.658 536.368 151.658C540.043 151.658 543.033 150.475 545.376 148.146C547.718 145.816 548.907 142.804 548.907 139.184C548.907 136.244 547.97 133.341 546.06 130.474C544.15 127.606 541.412 124.99 537.808 122.588C536.836 121.943 535.43 121.046 533.593 119.865C518.676 110.078 509.524 102.407 506.136 96.8514C504.587 94.4154 503.435 91.7264 502.714 88.8594C501.958 85.9914 501.597 82.9814 501.597 79.8254C501.597 71.8324 504.01 65.1654 508.84 59.7534C513.667 54.3774 519.576 51.6514 526.639 51.6514C529.81 51.6514 533.413 52.4764 537.52 54.1254C541.593 55.7744 544.115 56.5994 545.015 56.5994C546.204 56.5994 547.321 56.1684 548.33 55.3444C549.34 54.5194 550.203 53.3384 550.924 51.8684H557.59V89.6833H550.419C547.681 79.6103 544.259 71.9044 540.188 66.6354C536.115 61.3654 531.539 58.7144 526.46 58.7144C523.433 58.7144 520.837 59.7884 518.713 61.9764C516.549 64.1614 515.505 66.8144 515.505 69.9684C515.505 75.6324 521.558 82.2274 533.665 89.7184L534.097 89.9354C545.304 96.9244 553.013 103.267 557.266 108.932C561.518 114.595 563.643 121.046 563.643 128.251C563.643 136.71 560.869 143.952 555.321 149.974C549.77 155.996 543.033 159.006 535.142 159.006C531.215 159.006 527.107 158.074 522.856 156.173C518.604 154.275 516.082 153.343 515.325 153.343C514.497 153.343 513.56 153.701 512.515 154.382C511.506 155.099 509.884 156.604 507.723 159.006H501.705V115.527H501.633Z" fill="white"/>
<path d="M574.67 115.527H582.163C584.145 126.709 587.57 135.564 592.469 141.979C597.369 148.432 602.991 151.658 609.403 151.658C613.079 151.658 616.07 150.475 618.411 148.146C620.754 145.816 621.943 142.804 621.943 139.184C621.943 136.244 621.007 133.341 619.097 130.474C617.187 127.606 614.449 124.99 610.845 122.588C609.873 121.943 608.468 121.046 606.63 119.865C591.713 110.078 582.561 102.407 579.174 96.8514C577.624 94.4154 576.471 91.7264 575.75 88.8594C574.993 85.9914 574.633 82.9814 574.633 79.8254C574.633 71.8324 577.047 65.1654 581.875 59.7534C586.704 54.3774 592.613 51.6514 599.676 51.6514C602.847 51.6514 606.449 52.4764 610.557 54.1254C614.628 55.7744 617.15 56.5994 618.052 56.5994C619.241 56.5994 620.358 56.1684 621.366 55.3444C622.375 54.5194 623.24 53.3384 623.961 51.8684H630.627V89.6833H623.457C620.719 79.6103 617.294 71.9044 613.223 66.6354C609.152 61.3654 604.576 58.7144 599.495 58.7144C596.468 58.7144 593.874 59.7884 591.748 61.9764C589.587 64.1614 588.542 66.8144 588.542 69.9684C588.542 75.6324 594.595 82.2274 606.702 89.7184L607.135 89.9354C618.339 96.9244 626.051 103.267 630.303 108.932C634.554 114.595 636.68 121.046 636.68 128.251C636.68 136.71 633.905 143.952 628.356 149.974C622.808 155.996 616.07 159.006 608.179 159.006C604.252 159.006 600.144 158.074 595.892 156.173C591.641 154.275 589.119 153.343 588.361 153.343C587.533 153.343 586.595 153.701 585.551 154.382C584.543 155.099 582.921 156.604 580.758 159.006H574.742V115.527H574.67Z" fill="white"/>
<path d="M691.954 159.006V106.064H701.033C704.637 120.4 709.392 131.477 715.37 139.183C721.35 146.927 728.13 150.796 735.62 150.796C740.56 150.796 744.56 149.184 747.62 145.958C750.69 142.731 752.2 138.538 752.2 133.341C752.2 128.358 750.68 123.34 747.66 118.215C744.63 113.088 737.46 104.809 726.11 93.338C724.42 91.726 722.04 89.431 718.94 86.421C709.501 77.173 703.376 70.471 700.564 66.276C697.537 61.652 695.269 56.992 693.754 52.261C692.242 47.53 691.484 42.761 691.484 37.923C691.484 27.207 694.62 18.21 700.924 10.933C707.231 3.65501 714.87 0 723.88 0C727.62 0 731.88 1.07599 736.63 3.26099C741.42 5.44899 744.45 6.52301 745.71 6.52301C747.33 6.52301 748.85 6.02199 750.25 5.05499C751.66 4.08599 752.88 2.61599 753.96 0.644989H761.03V50.935H752.38C749.21 36.669 745.17 25.879 740.24 18.639C735.3 11.398 729.57 7.77802 723.01 7.77802C718.58 7.77802 714.94 9.17598 712.13 11.972C709.32 14.767 707.915 18.387 707.915 22.797C707.915 30.79 716.35 42.941 733.25 59.359L735.37 61.365C735.88 61.868 736.7 62.62 737.89 63.66C745.78 71.007 752.27 78.033 757.42 84.772C761.21 89.969 764.09 95.453 765.96 101.261C767.87 107.066 768.81 113.125 768.81 119.433C768.81 130.832 765.67 140.259 759.37 147.679C753.06 155.099 745.14 158.826 735.55 158.826C730.69 158.826 725.43 157.608 719.73 155.134C714.04 152.662 710.581 151.442 709.392 151.442C707.771 151.442 706.294 151.908 704.961 152.876C703.627 153.843 701.718 155.851 699.268 159.006H691.954Z" fill="white"/>
<path d="M787.08 134.847V62.8012H776.3V54.1982C783.76 50.2912 789.6 44.5192 793.82 36.9202C798.03 29.3212 800.73 19.6791 801.96 7.99414H810.39V54.1982H829.16V62.8012H810.39V135.242C810.39 139.292 810.79 142.124 811.61 143.701C812.44 145.278 813.81 146.066 815.79 146.066C818.53 146.066 820.66 144.13 822.17 140.296C823.69 136.461 824.44 131.119 824.44 124.345H831.4V126.029C831.4 136.82 829.38 144.992 825.34 150.618C821.31 156.211 815.36 159.006 807.54 159.006C800.52 159.006 795.33 157.071 792.01 153.164C788.7 149.257 787.08 143.163 787.08 134.847Z" fill="white"/>
<path d="M879.43 144.705C876.4 149.399 872.94 152.949 869.09 155.351C865.23 157.75 861.01 158.971 856.51 158.971C850.24 158.971 845.12 156.748 841.09 152.304C837.05 147.859 835.07 142.159 835.07 135.242C835.07 125.994 838.82 117.533 846.31 109.864C853.81 102.193 864.37 96.0641 878.02 91.4401V76.959C878.02 70.721 877.12 66.313 875.32 63.66C873.52 61.007 870.49 59.7161 866.2 59.7161C864.29 59.7161 862.46 60.0751 860.65 60.7571C858.85 61.4731 857.23 62.4041 855.75 63.5881C858.56 64.5571 860.76 66.062 862.31 68.105C863.86 70.148 864.62 72.514 864.62 75.238C864.62 78.606 863.46 81.3321 861.19 83.4471C858.92 85.5601 855.9 86.6011 852.19 86.6011C848.11 86.6011 844.8 85.4181 842.31 83.0161C839.83 80.6491 838.57 77.5671 838.57 73.7681C838.57 67.7461 841.74 62.5841 848.08 58.2831C854.42 53.9831 862.27 51.8311 871.61 51.8311C881.88 51.8311 889.44 54.053 894.23 58.498C899.06 62.942 901.48 69.9681 901.48 79.5381V134.774C901.48 138.683 901.73 141.227 902.23 142.338C902.74 143.449 903.6 144.022 904.86 144.022C906.49 144.022 907.67 143.055 908.47 141.12C909.22 139.184 909.62 136.244 909.62 132.23H915.1V135.17C915.1 142.876 913.58 148.754 910.59 152.805C907.6 156.856 903.31 158.899 897.77 158.899C893.69 158.899 890.16 157.75 887.17 155.421C884.18 153.091 881.62 149.615 879.43 144.705ZM878.06 99.756C872 101.512 867.28 105.096 863.9 110.509C860.51 115.921 858.81 122.732 858.81 130.94C858.81 135.708 859.46 139.256 860.76 141.658C862.06 144.022 864 145.241 866.63 145.241C869.8 145.241 872.51 143.414 874.71 139.722C876.9 136.03 878.02 131.405 878.02 125.814V99.756H878.06Z" fill="white"/>
<path d="M952.5 138.718C952.5 142.482 953.11 145.17 954.3 146.747C955.49 148.325 957.65 149.399 960.75 149.937V156.353H920.97V149.937C924.07 149.364 926.19 148.325 927.31 146.783C928.43 145.241 929 142.552 929 138.683V72.4419C929 68.3189 928.43 65.5229 927.28 64.0539C926.12 62.5839 924.07 61.6889 921.12 61.3299V54.1969C929.37 53.8379 935.6 53.5519 939.89 53.2999C944.17 53.0509 948.14 52.7989 951.71 52.5129L952.14 67.7458C956.28 62.3688 960.39 58.4269 964.39 55.9889C968.39 53.5519 972.75 52.2959 977.47 52.2959C985.21 52.2959 990.69 54.8049 993.93 59.8599C997.18 64.9149 998.8 73.6959 998.8 86.2049V138.718C998.8 142.552 999.34 145.241 1000.39 146.747C1001.43 148.253 1003.3 149.329 1005.97 149.937V156.353H975.23V83.6959C975.23 77.5319 974.55 73.2299 973.18 70.7929C971.81 68.3559 969.47 67.1009 966.15 67.1009C961.87 67.1009 958.52 69.1079 956.14 73.1219C953.76 77.1359 952.53 82.8719 952.53 90.2909V138.718H952.5Z" fill="white"/>
<path d="M1068.59 19.535C1068.59 15.771 1067.87 13.083 1066.47 11.543C1065.06 10.001 1062.4 8.962 1058.43 8.388V2.008C1064.41 1.721 1070.21 1.43299 1075.8 1.11099C1081.38 0.788992 1086.82 0.431 1092.12 0V139.148C1092.12 143.197 1092.66 145.886 1093.71 147.141C1094.75 148.395 1096.84 149.184 1099.94 149.436V156.352C1099.43 156.352 1098.72 156.389 1097.71 156.461C1085.74 157.035 1076.3 157.608 1069.42 158.253L1068.99 147.106C1065.6 151.013 1062.21 153.988 1058.75 155.996C1055.3 158.002 1051.95 158.97 1048.63 158.97C1038.97 158.97 1031.37 154.274 1025.82 144.884C1020.27 135.491 1017.5 122.48 1017.5 105.813C1017.5 89.646 1020.49 76.563 1026.47 66.599C1032.45 56.634 1040.09 51.651 1049.39 51.651C1053.06 51.651 1056.45 52.548 1059.62 54.376C1062.79 56.205 1065.78 59 1068.59 62.763V19.535ZM1068.59 84.951C1068.59 78.284 1067.44 73.087 1065.1 69.288C1062.76 65.488 1059.62 63.624 1055.58 63.624C1050.86 63.624 1047.59 66.313 1045.78 71.724C1043.95 77.101 1043.05 88.106 1043.05 104.701C1043.05 121.978 1044.02 133.413 1045.96 139.004C1047.91 144.595 1051.33 147.356 1056.27 147.356C1060.02 147.356 1063.01 145.564 1065.24 142.016C1067.47 138.466 1068.63 133.592 1068.63 127.426V84.951H1068.59Z" fill="white"/>
<path d="M1150.74 144.705C1147.72 149.399 1144.26 152.949 1140.4 155.351C1136.55 157.75 1132.33 158.971 1127.83 158.971C1121.56 158.971 1116.44 156.748 1112.41 152.304C1108.37 147.859 1106.39 142.159 1106.39 135.242C1106.39 125.994 1110.14 117.533 1117.63 109.864C1125.13 102.193 1135.68 96.0641 1149.34 91.4401V76.959C1149.34 70.721 1148.44 66.313 1146.64 63.66C1144.84 61.007 1141.81 59.7161 1137.52 59.7161C1135.61 59.7161 1133.77 60.0751 1131.97 60.7571C1130.17 61.4731 1128.55 62.4041 1127.07 63.5881C1129.88 64.5571 1132.08 66.062 1133.63 68.105C1135.18 70.148 1135.94 72.514 1135.94 75.238C1135.94 78.606 1134.78 81.3321 1132.51 83.4471C1130.24 85.5601 1127.22 86.6011 1123.5 86.6011C1119.43 86.6011 1116.12 85.4181 1113.63 83.0161C1111.15 80.6491 1109.88 77.5671 1109.88 73.7681C1109.88 67.7461 1113.06 62.5841 1119.4 58.2831C1125.74 53.9831 1133.59 51.8311 1142.93 51.8311C1153.19 51.8311 1160.76 54.053 1165.55 58.498C1170.38 62.942 1172.79 69.9681 1172.79 79.5381V134.774C1172.79 138.683 1173.05 141.227 1173.55 142.338C1174.06 143.449 1174.92 144.022 1176.18 144.022C1177.8 144.022 1178.99 143.055 1179.79 141.12C1180.54 139.184 1180.94 136.244 1180.94 132.23H1186.42V135.17C1186.42 142.876 1184.9 148.754 1181.91 152.805C1178.92 156.856 1174.63 158.899 1169.08 158.899C1165.01 158.899 1161.48 157.75 1158.49 155.421C1155.5 153.091 1152.91 149.615 1150.74 144.705ZM1149.34 99.756C1143.29 101.512 1138.57 105.096 1135.18 110.509C1131.79 115.921 1130.1 122.732 1130.1 130.94C1130.1 135.708 1130.75 139.256 1132.04 141.658C1133.34 144.022 1135.29 145.241 1137.92 145.241C1141.09 145.241 1143.79 143.414 1145.99 139.722C1148.19 136.03 1149.3 131.405 1149.3 125.814V99.756H1149.34Z" fill="white"/>
<path d="M1191.17 156.353V149.937C1194.96 149.112 1197.48 148.001 1198.67 146.64C1199.85 145.278 1200.47 142.552 1200.47 138.503V72.0479C1200.47 68.1399 1199.78 65.4159 1198.41 63.9109C1197.04 62.4039 1194.41 61.3649 1190.56 60.8269V54.1969L1192.47 54.0899C1205.62 53.5169 1215.78 53.0139 1222.99 52.5129L1223.2 74.4479C1225.65 67.2449 1228.82 61.7609 1232.64 57.9609C1236.46 54.1619 1240.75 52.2959 1245.47 52.2959C1249.54 52.2959 1252.89 53.5869 1255.45 56.1329C1258.01 58.6769 1259.31 62.0099 1259.31 66.0609C1259.31 69.8959 1258.05 73.0499 1255.56 75.5239C1253.07 77.9609 1249.83 79.2159 1245.9 79.2159C1242.88 79.2159 1240.36 78.3569 1238.3 76.5999C1236.25 74.8439 1234.66 72.2629 1233.54 68.8219C1230.23 73.3739 1227.71 79.5749 1226.01 87.4239C1224.28 95.2739 1223.42 104.522 1223.42 115.133V137.285C1223.42 141.837 1224.18 144.847 1225.69 146.352C1227.2 147.859 1230.19 148.611 1234.7 148.611H1235.96V156.39H1191.17V156.353Z" fill="white"/>
<path d="M1314.65 19.535C1314.65 15.771 1313.93 13.083 1312.53 11.543C1311.12 10.001 1308.45 8.962 1304.49 8.388V2.008C1310.47 1.721 1316.27 1.43299 1321.86 1.11099C1327.44 0.788992 1332.88 0.431 1338.18 0V139.148C1338.18 143.197 1338.72 145.886 1339.77 147.141C1340.81 148.395 1342.9 149.184 1346 149.436V156.352C1345.5 156.352 1344.77 156.389 1343.77 156.461C1331.8 157.035 1322.36 157.608 1315.48 158.253L1315.05 147.106C1311.66 151.013 1308.28 153.988 1304.82 155.996C1301.36 158.002 1298.01 158.97 1294.69 158.97C1285.03 158.97 1277.43 154.274 1271.88 144.884C1266.33 135.491 1263.56 122.48 1263.56 105.813C1263.56 89.646 1266.55 76.563 1272.53 66.599C1278.51 56.634 1286.15 51.651 1295.45 51.651C1299.12 51.651 1302.51 52.548 1305.68 54.376C1308.85 56.205 1311.84 59 1314.65 62.763V19.535ZM1314.65 84.951C1314.65 78.284 1313.5 73.087 1311.16 69.288C1308.82 65.488 1305.68 63.624 1301.65 63.624C1296.92 63.624 1293.65 66.313 1291.84 71.724C1290.01 77.101 1289.11 88.106 1289.11 104.701C1289.11 121.978 1290.08 133.413 1292.03 139.004C1293.97 144.595 1297.39 147.356 1302.33 147.356C1306.08 147.356 1309.07 145.564 1311.3 142.016C1313.54 138.466 1314.69 133.592 1314.69 127.426V84.951H1314.65Z" fill="white"/>
</svg>
