<svg width="1066" height="199" viewBox="0 0 1066 199" fill="none" xmlns="http://www.w3.org/2000/svg">
<path d="M744.4 2.79986C715.467 13.8665 729.2 54.5332 759.733 48.2665C768.533 46.3999 774 42.6665 777.333 35.9999C784.133 22.6665 777.6 7.19986 762.8 1.99986C755.333 -0.533473 752.933 -0.400139 744.4 2.79986Z" fill="white"/>
<path d="M180.4 8.53332C170.667 11.4667 162.667 14.6667 162.667 15.6C162.667 16.4 166.267 19.0667 170.667 21.6L178.667 26V102.933C178.667 146.267 178.133 181.2 177.467 183.067C176.267 186.267 171.467 188.933 165.333 189.6C163.067 189.867 161.867 190.933 161.6 193.067L161.2 196H191.2H221.333V192.8C221.333 190.133 220.533 189.6 215.867 188.933C204.933 187.467 205.333 189.467 205.333 138.533V93.4667L209.733 90.1333C226.267 77.6 247.467 77.0667 254.933 89.0667C257.867 93.8667 258 94.9333 258.4 135.333C258.667 158 258.533 178.533 258 180.933C257.2 185.733 254 188 246.8 189.2C243.2 189.867 242.133 190.667 242 193.067L241.733 196H271.6H301.333V192.8C301.333 190.133 300.533 189.6 295.867 188.933C285.067 187.467 285.333 188.933 285.333 142.8C285.333 100.4 284.267 88.4 280 80C269.333 58.9333 236.4 58.9333 214.133 80C210.267 83.6 206.667 86.6667 206.267 86.6667C205.733 86.6667 205.333 67.7333 205.333 44.6667V2.66666L201.733 2.79999C199.6 2.93332 190 5.46666 180.4 8.53332Z" fill="white"/>
<path d="M2.79998 47.4667C1.86665 61.0667 0.799982 73.0667 0.399982 74.1333C-1.78727e-05 75.4667 0.666649 76 2.93332 76C5.73332 76 6.93332 74.4 11.7333 63.2C18.8 47.0667 25.4666 36.9333 31.7333 33.0667C35.8667 30.5333 39.0667 30 50.2667 29.6L64 29.0667V104.533V180.133L60.8 183.333C58.8 185.333 54.6667 187.067 49.4667 188.133C42.4 189.6 41.3333 190.267 41.3333 192.933V196H78.6667H116V192.8C116 190 115.2 189.467 109.333 188.667C101.467 187.6 94.5333 183.2 93.2 178.667C92.6667 176.8 92.2667 142.533 92.1333 102.267L92 29.3333H104.4C126.8 29.4667 132.267 34.4 147.2 68.2667C149.733 74.1333 151.2 76 153.333 76C156 76 156.133 75.4667 155.333 68.2667C154.667 60.8 152 25.8667 152 23.7333C152 23.2 118.8 22.6667 78.2667 22.6667H4.39998L2.79998 47.4667Z" fill="white"/>
<path d="M426.667 27.3333C426.667 31.3333 427.2 32 430.4 32.8C438.533 34.5333 440.8 35.7333 442.267 38.8C443.6 41.2 444 58.5333 444 109.467C444 175.333 443.867 177.067 441.333 180.4C439.467 182.8 436.8 184.133 432.667 184.8C426.8 185.6 426.667 185.733 426.667 190.8V196H476H525.333V190.8V185.733L517.467 184.933C507.867 184.133 500.8 180.933 498.8 176.533C497.867 174.533 497.333 164.933 497.333 151.467V129.733L517.067 129.067C563.733 127.467 585.6 112.133 587.6 79.3333C589.067 56.1333 579.733 40 559.333 30.4C544.133 23.3333 537.733 22.6667 479.733 22.6667H426.667V27.3333ZM517.067 37.2C524.267 40.8 531.067 49.2 533.733 57.4667C536.533 66 536.667 82.6667 534 91.6C529.6 106.267 517.6 116 503.733 116H497.333V74.5333V32.9333L504.533 33.7333C508.4 34.1333 514.133 35.7333 517.067 37.2Z" fill="white"/>
<path d="M1026.67 27.7335C1022.93 28.1335 1019.87 30.2668 1011.33 38.5335C998.8 50.6668 991.6 55.7335 978 62.2668C968.933 66.5335 968 67.3335 968 70.8001C968 74.5335 968.267 74.6668 974.667 74.6668H981.333V119.067C981.333 167.6 982.133 174.533 988.933 184.4C998.267 197.867 1021.47 202.267 1042.13 194.533C1050.8 191.333 1065.33 178.267 1065.33 173.733C1065.33 168.267 1063.33 167.6 1057.33 170.667C1049.2 174.8 1040.67 174.533 1036.13 170.133L1032.67 166.667L1032.27 120.667L1031.87 74.6668H1046H1060V68.0001V61.3335H1046H1032.13L1031.73 44.2668L1031.33 27.3335L1026.67 27.7335Z" fill="white"/>
<path d="M622 67.2C597.867 73.7333 596.667 74.1333 596.267 77.4667C596 80.2667 596.933 81.6 602.667 85.0667L609.333 89.2L609.067 136.267L608.667 183.333L602.4 185.333C596.533 187.2 596 187.733 596 191.6V196H637.333H678.667V191.333C678.667 187.333 678.133 186.667 675.067 185.867C666.533 184 662.533 182.267 661.333 180C660.533 178.533 660 162.933 660 142.133V106.8L668.667 104.133C673.733 102.533 683.6 101.067 692.667 100.533L708 99.6V81.3333V63.0667L704.667 61.6C700 59.4667 688.933 59.6 683.6 61.8667C677.2 64.5333 669.867 73.7333 665.867 84.5333C663.867 89.7333 661.6 94.5333 661.067 95.3333C660.4 96.1333 660 88.9333 660.267 78.2667L660.667 60L654 60.1333C650.4 60.2667 636 63.3333 622 67.2Z" fill="white"/>
<path d="M741.067 67.0667C716.267 73.8667 716 74 716 77.6C716 80.4 717.333 82.1333 722 85.3333L728 89.4667V135.867C728 171.467 727.6 182.667 726.4 183.733C725.467 184.4 722.667 185.467 720.4 186C716.533 186.8 716 187.333 716 191.467V196H754H792V191.467C792 187.467 791.467 186.933 787.733 186.133C778.133 184.267 778.667 187.733 778.667 120.4V60L772.4 60.1333C768.8 60.2667 754.8 63.3333 741.067 67.0667Z" fill="white"/>
<path d="M828.4 67.0667C802.667 73.8667 802.667 73.8667 802.667 77.6C802.667 80.6667 803.867 82.1333 809.333 85.4667L816 89.6V134.533C816 184.4 816 184.267 807.333 185.867C803.067 186.667 802.667 187.2 802.667 191.333V196H840.667H878.667V191.467C878.667 187.467 878.133 186.933 874.4 186.133C865.067 184.267 865.333 185.867 865.333 136.4V92L869.067 90.4C871.067 89.6 877.333 88.8 883.067 88.8C892.933 88.6667 893.733 88.9333 896.8 92.4L900 96.1333V139.2C900 186 900.267 184.267 892.4 186C888.533 186.8 888 187.333 888 191.467V196H926H964V191.467C964 187.467 963.6 186.933 959.733 186.133C950.933 184.4 951.333 187.467 950.667 134.4L950 86L946.4 78.4C942.4 69.8667 935.067 63.6 926.133 61.2C923.067 60.4 915.6 60 909.333 60.2667C894.533 60.9333 885.467 65.0667 873.867 76.2667L865.067 84.6667L866 72.2667L867.067 60L860.533 60.1333C856.933 60.1333 842.4 63.3333 828.4 67.0667Z" fill="white"/>
<path d="M352 66.1334C325.733 73.2001 308 100.667 308 134.667C308 154.133 314.533 171.467 326.133 183.067C333.867 190.667 343.067 195.2 355.2 197.467C372.533 200.667 393.6 194 403.467 182C408.667 175.467 415.2 162 414 160C413.467 159.2 410.533 161.467 407.2 165.2C398.533 174.933 388.8 179.2 376 179.333C364.133 179.333 355.467 176 347.6 168.267C338.133 159.2 332 142.8 332 127.067V118.667H372.8H413.733L412.933 108.933C411.2 85.7334 399.333 70.6667 378.8 65.8667C369.333 63.6001 361.2 63.6001 352 66.1334ZM375.467 74.8001C382.667 79.2001 389.067 95.6001 389.333 110.267C389.333 111.6 382.667 112 360.667 112C344.933 112 332 111.6 332 110.933C332.133 107.467 336.4 92.4001 338.533 88.2667C341.733 81.8667 350.8 73.6001 355.6 72.5334C357.733 72.1334 360 71.6001 360.667 71.3334C363.333 70.4001 371.467 72.4001 375.467 74.8001Z" fill="white"/>
</svg>
