<svg width="479" height="186" viewBox="0 0 479 186" fill="none" xmlns="http://www.w3.org/2000/svg">
<path d="M19.4002 17.733L0.333496 35.333V110.266V185.333H220.334H440.334V168V150.666H459.667H479V75.333V-0.000335187L258.734 0.132998H38.3335L19.4002 17.733ZM467 75.333V138.666H258.334H49.6668V75.333V11.9997H258.334H467V75.333ZM39.0002 25.333V34.6663H28.7335L18.3335 34.533L28.2002 25.333C33.6668 20.133 38.3335 15.9997 38.6002 15.9997C38.8668 15.9997 39.0002 20.133 39.0002 25.333ZM39.0002 93.1997V139.733L26.2002 151.6C19.1335 158 13.0002 163.466 12.6002 163.733C12.0668 163.866 11.8002 137.6 12.0668 105.333L12.3335 46.6663H25.6668H39.0002V93.1997ZM429.667 162V173.333H224.734L19.6668 173.2L31.6668 162L43.6668 150.8L236.734 150.666H429.667V162Z" fill="white"/>
<path d="M83 41.7327C83 42.666 85.6667 51.466 89 61.3327C94.7333 78.5327 95 79.866 95 94.9327V110.666H101H107V94.9327C107 79.866 107.267 78.5327 113 61.3327C116.333 51.466 119 42.666 119 41.5993C119 40.3993 117.533 39.9993 114.067 40.266L109.133 40.666L105.8 52.9327C103.933 59.7327 101.933 65.3327 101.533 65.3327C101 65.3327 100.2 63.7327 99.6667 61.5993C99.2667 59.5993 97.6667 53.9993 96.0667 48.9327L93.4 39.9993H88.2C84.8667 39.9993 83 40.666 83 41.7327Z" fill="white"/>
<path d="M128.067 43.8659L123.667 47.7325L123.267 73.5992C122.867 95.8659 123.133 99.8659 125.133 103.599C130.867 114.399 148.467 114.399 154.2 103.599C156.2 99.8659 156.467 95.8659 156.067 73.5992L155.667 47.7325L151.267 43.8659C147.667 40.5325 145.8 39.9992 139.667 39.9992C133.533 39.9992 131.667 40.5325 128.067 43.8659ZM144.067 50.9325C146.067 52.9325 146.333 96.2659 144.333 100.133C142.467 103.466 136.867 103.466 135 100.133C134.2 98.6659 133.667 87.9992 133.667 75.0659C133.667 51.4659 134.2 49.3325 139.667 49.3325C141.267 49.3325 143.133 49.9992 144.067 50.9325Z" fill="white"/>
<path d="M164.333 70.2665C164.333 97.9999 164.6 101.067 167 104.933C172.333 113.733 187.667 113.733 194.2 104.933C196.867 101.333 197 99.4665 197 70.9332V40.6665L192.067 40.2665L187 39.8665V68.6665C187 85.9999 186.467 98.5332 185.667 100.133C184.067 102.933 179 103.467 176.6 101.067C175.4 99.8665 175 91.0665 175 69.7332V39.9999H169.667H164.333V70.2665Z" fill="white"/>
<path d="M205.667 75.3327V110.666H211H216.334V95.1993V79.866L220.6 80.266C226.6 80.7993 228.334 84.7993 228.334 98.9327V110.666H233.667H239V100.266C238.867 87.5993 237.267 79.9993 233.934 77.1993C231.4 75.1993 231.4 75.066 234.467 71.466C237.134 68.5327 237.667 66.3993 237.667 59.3327C237.667 54.666 237 49.3327 236.2 47.466C234.067 42.7993 226.067 39.9993 215 39.9993H205.667V75.3327ZM224.467 50.666C226.467 51.866 227 53.5993 227 59.7327C227 68.3993 225.534 70.666 220.067 70.666H216.334V60.9327C216.334 55.466 216.734 50.666 217.267 50.266C218.467 48.9327 221.4 49.066 224.467 50.666Z" fill="white"/>
<path d="M252.6 41.7327C247.4 44.666 245.134 49.3327 245.134 56.9327C245.267 65.1994 247.267 68.5327 257.8 78.9327C263.267 84.3994 265.8 87.9994 266.467 91.466C267.667 97.7327 265.4 102.666 261.267 102.666C257 102.666 255 100.266 255 95.066C255 90.7994 254.867 90.666 249.534 90.666H243.934L244.734 96.7994C247.134 118.399 277.667 115.866 277.667 94.1327C277.667 86.666 274.867 81.466 265.4 71.7327C256.334 62.5327 253.8 56.7994 256.334 51.866C257.934 49.066 263 48.5327 265.4 50.9327C266.334 51.866 267 54.1327 267 55.9994C267 59.3327 267.4 59.5994 272.334 59.5994C277 59.5994 277.667 59.1994 277.667 56.3994C277.667 51.5994 274.334 44.666 270.867 42.1327C267.134 39.5994 257 39.3327 252.6 41.7327Z" fill="white"/>
<path d="M281.667 44.9327V49.9993H287.267H293L293.4 80.266L293.667 110.666H299H304.334V79.9993V49.3327H310.467C316.467 49.3327 316.467 49.3327 316.067 44.9327L315.667 40.666L298.734 40.266L281.667 39.866V44.9327Z" fill="white"/>
<path d="M327.533 42.5329C321.267 46.2663 320.333 51.0663 320.333 76.5329C320.333 101.733 321 104 328.2 108.933C333.4 112.4 338.467 112.8 345 110.133C352.867 106.8 353.667 103.333 353.667 74.5329V49.0663L349.133 44.5329C345.267 40.6663 343.667 39.9996 338.2 39.9996C334.067 39.9996 330.067 40.9329 327.533 42.5329ZM341.4 50.9329C342.467 51.9996 343 59.4663 343 75.9996C343 92.5329 342.467 99.9996 341.4 101.066C339 103.466 333.933 102.933 332.333 100.133C331.533 98.6663 331 88.2663 331 75.9996C331 63.7329 331.533 53.3329 332.333 51.8663C333.933 49.0663 339 48.5329 341.4 50.9329Z" fill="white"/>
<path d="M361.667 75.3327V110.666H367H372.2L372.6 95.5993L373 80.666L376.6 80.266C382.467 79.5993 384.334 83.9993 384.334 98.266V110.666H390.067H395.667L395.267 98.3993C394.867 83.066 394.334 80.7993 390.6 77.1993C388.6 75.1993 388.2 74.1327 389.4 73.7327C395 71.5993 397 54.5327 392.334 47.066C389.267 41.9993 383.4 39.9993 370.734 39.9993H361.667V75.3327ZM381.934 51.5993C383.534 53.066 384.334 55.5993 384.334 59.5993C384.334 67.9993 382.6 70.666 377 70.666H372.334V60.9327C372.334 55.466 372.734 50.666 373.267 50.266C374.867 48.666 379.4 49.3327 381.934 51.5993Z" fill="white"/>
<path d="M399 40.9327C399 41.5993 402.067 51.066 405.667 61.9993C412.067 80.9327 412.333 82.5327 412.333 96.266V110.666H417.667H423V95.466C423 81.066 423.267 79.3327 428.867 62.3993C432.067 52.666 435.133 43.5993 435.667 42.266C436.467 40.3993 435.8 39.9993 431.267 39.9993H425.933L423.267 48.9327C421.667 53.9993 420.067 59.5993 419.667 61.5993C419.133 63.7327 418.333 65.3327 417.8 65.3327C417.4 65.3327 415.4 59.7327 413.533 52.9327L410.2 40.666L404.6 40.266C401.533 39.9993 399 40.3993 399 40.9327Z" fill="white"/>
</svg>
