<svg width="114" height="114" viewBox="0 0 114 114" fill="none" xmlns="http://www.w3.org/2000/svg">
<path d="M56.6667 73.6667H73.6667C76.7833 73.6667 79.4523 72.556 81.6737 70.3347C83.8912 68.1171 85 65.45 85 62.3333V51C85 47.8833 83.8912 45.2143 81.6737 42.993C79.4523 40.7754 76.7833 39.6667 73.6667 39.6667H62.3333V28.3333H79.475C81.0806 28.3333 82.4028 27.7912 83.4417 26.707C84.4806 25.619 85 24.2722 85 22.6667C85 21.0611 84.456 19.7143 83.368 18.6263C82.2838 17.5421 80.9389 17 79.3333 17H56.6667C55.0611 17 53.7162 17.5421 52.632 18.6263C51.544 19.7143 51 21.0611 51 22.6667V45.3333C51 46.9389 51.544 48.2838 52.632 49.368C53.7162 50.456 55.0611 51 56.6667 51H73.6667V62.3333H56.525C54.9194 62.3333 53.5972 62.8754 52.5583 63.9597C51.5194 65.0477 51 66.3944 51 68C51 69.6056 51.544 70.9504 52.632 72.0347C53.7162 73.1227 55.0611 73.6667 56.6667 73.6667ZM34 90.6667C30.8833 90.6667 28.2162 89.5579 25.9987 87.3403C23.7773 85.119 22.6667 82.45 22.6667 79.3333V11.3333C22.6667 8.21667 23.7773 5.54767 25.9987 3.32633C28.2162 1.10878 30.8833 0 34 0H102C105.117 0 107.786 1.10878 110.007 3.32633C112.225 5.54767 113.333 8.21667 113.333 11.3333V79.3333C113.333 82.45 112.225 85.119 110.007 87.3403C107.786 89.5579 105.117 90.6667 102 90.6667H34ZM11.3333 113.333C8.21667 113.333 5.54956 112.225 3.332 110.007C1.11067 107.786 0 105.117 0 102V28.1917C0 26.5861 0.544001 25.2639 1.632 24.225C2.71622 23.1861 4.06111 22.6667 5.66667 22.6667C7.27222 22.6667 8.619 23.2088 9.707 24.293C10.7912 25.381 11.3333 26.7278 11.3333 28.3333V102H85.1417C86.7472 102 88.0695 102.544 89.1083 103.632C90.1472 104.716 90.6667 106.061 90.6667 107.667C90.6667 109.272 90.1227 110.617 89.0347 111.701C87.9504 112.789 86.6056 113.333 85 113.333H11.3333Z" fill="url(#paint0_linear_54_7)"/>
<defs>
<linearGradient id="paint0_linear_54_7" x1="56.6667" y1="0" x2="157.5" y2="113" gradientUnits="userSpaceOnUse">
<stop stop-color="#8B53FF"/>
<stop offset="0.885823" stop-color="#CB6CE4"/>
</linearGradient>
</defs>
</svg>
