<svg width="1536" height="1792" viewBox="0 0 1536 1792" fill="none" xmlns="http://www.w3.org/2000/svg">
<g clip-path="url(#clip0_17_2)">
<path d="M1408 128C1408 302 1372.5 455.833 1301.5 589.5C1230.5 723.167 1141.67 825.333 1035 896C1141.67 966.667 1230.5 1068.83 1301.5 1202.5C1372.5 1336.17 1408 1490 1408 1664H1504C1513.33 1664 1521 1667 1527 1673C1533 1679 1536 1686.67 1536 1696V1760C1536 1769.33 1533 1777 1527 1783C1521 1789 1513.33 1792 1504 1792H32C22.6667 1792 15 1789 9 1783C3 1777 0 1769.33 0 1760V1696C0 1686.67 3 1679 9 1673C15 1667 22.6667 1664 32 1664H128C128 1490 163.5 1336.17 234.5 1202.5C305.5 1068.83 394.333 966.667 501 896C394.333 825.333 305.5 723.167 234.5 589.5C163.5 455.833 128 302 128 128H32C22.6667 128 15 125 9 119C3 113 0 105.333 0 96V32C0 22.6667 3 15 9 9C15 3 22.6667 0 32 0H1504C1513.33 0 1521 3 1527 9C1533 15 1536 22.6667 1536 32V96C1536 105.333 1533 113 1527 119C1521 125 1513.33 128 1504 128H1408ZM1280 128H256C256 172 259 214.667 265 256H1271C1277 215.333 1280 172.667 1280 128ZM1280 1664C1280 1577.33 1268.67 1494.17 1246 1414.5C1223.33 1334.83 1193.17 1265.5 1155.5 1206.5C1117.83 1147.5 1075.67 1096.83 1029 1054.5C982.333 1012.17 933.667 980.667 883 960H653C602.333 980.667 553.667 1012.17 507 1054.5C460.333 1096.83 418.167 1147.5 380.5 1206.5C342.833 1265.5 312.667 1334.83 290 1414.5C267.333 1494.17 256 1577.33 256 1664H1280Z" fill="url(#paint0_linear_17_2)"/>
</g>
<defs>
<linearGradient id="paint0_linear_17_2" x1="768" y1="0" x2="768" y2="1792" gradientUnits="userSpaceOnUse">
<stop stop-color="#8B53FF"/>
<stop offset="1" stop-color="#CB6CE4"/>
</linearGradient>
<clipPath id="clip0_17_2">
<rect width="1536" height="1792" fill="white"/>
</clipPath>
</defs>
</svg>
