<svg width="22" height="18" viewBox="0 0 22 18" fill="none" xmlns="http://www.w3.org/2000/svg">
<path d="M20 0H2C0.89 0 0 0.89 0 2V14C0 14.5304 0.210714 15.0391 0.585786 15.4142C0.960859 15.7893 1.46957 16 2 16H7V18H15V16H20C21.1 16 21.99 15.1 21.99 14L22 2C22 1.46957 21.7893 0.960859 21.4142 0.585786C21.0391 0.210714 20.5304 0 20 0ZM20 14H2V2H20V14ZM15 8L8 12V4L15 8Z" fill="url(#paint0_linear_11_3)"/>
<defs>
<linearGradient id="paint0_linear_11_3" x1="-0.5" y1="0.5" x2="11" y2="18" gradientUnits="userSpaceOnUse">
<stop stop-color="#8B53FF"/>
<stop offset="1" stop-color="#CB6CE4"/>
</linearGradient>
</defs>
</svg>
